<svg xmlns="http://www.w3.org/2000/svg" xmlns:xlink="http://www.w3.org/1999/xlink" width="750" height="471" viewBox="0 0 750 471">
  <defs>
    <clipPath id="clip-path">
      <rect width="750" height="471" fill="none"/>
    </clipPath>
  </defs>
  <g id="Component_1_1" data-name="Component 1 – 1" clip-path="url(#clip-path)">
    <rect id="Rectangle_3" data-name="Rectangle 3" width="750" height="471" rx="38" fill="#393939"/>
    <g id="Mada_Logo" transform="translate(53 128)">
      <rect id="Rectangle_1" data-name="Rectangle 1" width="272.451" height="90.763" transform="translate(0 123.849)" fill="#b8b8b8"/>
      <rect id="Rectangle_2" data-name="Rectangle 2" width="272.451" height="90.844" fill="#7a7a7a"/>
      <path id="Path_1" data-name="Path 1" d="M662.576,221.522l-1.213.243c-4.207.809-5.743,1.133-8.817,1.133-7.119,0-15.532-3.64-15.532-20.79,0-8.817,1.456-20.547,14.723-20.547h.081a39.846,39.846,0,0,1,9.707,1.861l1.052.324v37.777Zm2.184-85.5-2.184.4v31.71l-1.942-.566-.566-.162a44.645,44.645,0,0,0-12.053-2.1c-26.533,0-32.115,20.062-32.115,36.888,0,23.055,12.943,36.321,35.512,36.321,9.546,0,16.583-.971,23.7-3.317,6.552-2.1,8.9-5.1,8.9-11.487V132.7c-6.31,1.133-12.862,2.265-19.253,3.317" transform="translate(-117.674 -25.354)" fill="#fff"/>
      <path id="Path_2" data-name="Path 2" d="M760.305,229.692l-1.133.324-4.045,1.052a42.162,42.162,0,0,1-9.788,1.537c-6.229,0-9.95-3.074-9.95-8.332,0-3.4,1.537-9.141,11.73-9.141h13.186ZM751,172.5c-8.17,0-16.583,1.456-27.019,4.692l-6.8,2.022,2.265,15.37,6.633-2.184a78,78,0,0,1,22.084-3.721c2.912,0,11.81,0,11.81,9.626v4.206H747.6c-22.569,0-33,7.2-33,22.65,0,13.186,9.626,21.113,25.805,21.113a83.428,83.428,0,0,0,17.959-2.427l.324-.081.324.081,2.022.324c6.31,1.133,12.862,2.265,19.253,3.478V197.173c0-16.341-9.869-24.673-29.284-24.673" transform="translate(-136.532 -32.958)" fill="#fff"/>
      <path id="Path_3" data-name="Path 3" d="M566.005,229.692l-1.133.324-4.045,1.052a41.54,41.54,0,0,1-9.788,1.537c-6.229,0-9.95-3.074-9.95-8.332,0-3.4,1.537-9.141,11.649-9.141h13.186l.081,14.561ZM556.783,172.5c-8.251,0-16.583,1.456-27.019,4.692l-6.8,2.022,2.265,15.37,6.633-2.184a77.994,77.994,0,0,1,22.084-3.721c2.912,0,11.81,0,11.81,9.626v4.206H553.386c-22.569,0-33.086,7.2-33.086,22.65,0,13.186,9.626,21.113,25.886,21.113a83.428,83.428,0,0,0,17.958-2.427l.324-.081.324.081,1.941.324c6.391,1.133,12.862,2.265,19.253,3.559V197.254c.081-16.5-9.788-24.754-29.2-24.754" transform="translate(-99.409 -32.958)" fill="#fff"/>
      <path id="Path_4" data-name="Path 4" d="M453.578,172.681a54.587,54.587,0,0,0-21.922,4.854l-.809.4-.728-.566c-4.368-3.155-10.759-4.773-19.657-4.773a80.418,80.418,0,0,0-23.217,3.478c-6.876,2.1-9.545,5.42-9.545,11.649V245.4h21.518V192.1l1.052-.324a27.383,27.383,0,0,1,9.465-1.7c6.229,0,9.384,3.317,9.384,9.788v45.624h21.194V198.971a15.657,15.657,0,0,0-.647-4.692l-.728-1.375,1.456-.647a25.508,25.508,0,0,1,10.516-2.184c4.287,0,9.384,1.7,9.384,9.788v45.624h21.113V197.758c0-16.907-9.06-25.077-27.828-25.077" transform="translate(-72.164 -32.977)" fill="#fff"/>
      <path id="Path_5" data-name="Path 5" d="M718.905,59.214a73.4,73.4,0,0,1-12.539-1.133l-1.213-.243V26.695a15.23,15.23,0,0,0-.566-4.449l-.647-1.294,1.375-.566c.324-.162.647-.243,1.052-.4l.243-.162,1.456-.485a2.058,2.058,0,0,1,.566-.162c4.773-1.294,9.141-1.133,11.082-1.294h.081c13.186,0,14.723,11.73,14.723,20.547-.081,17.15-8.575,20.79-15.613,20.79M718.824,0h-.566c-12.377,0-25.077,3.4-29.607,10.031a20.237,20.237,0,0,0-3.883,12.053h0V54.2a9.492,9.492,0,0,1-.647,4.045l-.728,1.375H644.321V37.292h-.081C643.755,13.752,629.841.809,609.7.809H590.041c-.809,5.743-1.456,9.788-2.265,15.532h19.576c10.274,0,15.693,8.737,15.693,22.165V60.994l-1.375-.728a14.847,14.847,0,0,0-4.611-.647H583.246c-.647,4.287-1.456,9.869-2.346,15.451H684.849c3.559-.728,7.685-1.375,11.244-1.941,5.258,2.589,15.046,3.964,21.76,3.964,22.569,0,37.211-15.127,37.211-38.425C754.984,15.613,740.827.485,718.824,0" transform="translate(-110.987)" fill="#fff"/>
      <path id="Path_6" data-name="Path 6" d="M497.747,84.744h.971c22.569,0,33.086-7.442,33.086-25.805,0-13.186-9.626-23.7-25.805-23.7h-20.79c-6.229,0-9.95-3.559-9.95-9.545,0-4.045,1.537-9.06,11.73-9.06H532.45c.971-5.905,1.456-9.626,2.346-15.532H487.554c-22,0-33.086,9.222-33.086,24.592,0,15.208,9.626,23.136,25.805,23.136h20.79a9.818,9.818,0,0,1,9.95,10.112c0,3.4-1.537,10.435-11.649,10.435h-3.478l-66.576-.162H417.176c-10.274,0-17.473-5.824-17.473-19.334v-9.3c0-14.076,5.582-22.812,17.473-22.812h19.738c.89-5.986,1.456-9.788,2.265-15.451H412.242c-20.143,0-34.056,13.509-34.542,37.049h0V49.879c.485,23.54,14.4,34.784,34.542,34.784H431.9l36.079.081h29.769Z" transform="translate(-72.164 -0.21)" fill="#fff"/>
    </g>
  </g>
</svg>
