<svg xmlns="http://www.w3.org/2000/svg" width="25.94" height="29.659" viewBox="0 0 25.94 29.659">
  <path id="Path_66" data-name="Path 66" d="M167.532,148.582l6.563-11.449,6.563,11.449Zm-1.46-25.476,7.05,12.314-7.068,12.314-7.23-12.314Zm8.023,10.637-6.563-11.449h13.126Zm.974,1.695,7.789-13.576a.884.884,0,0,0,0-.847.848.848,0,0,0-.721-.415H166.107a.826.826,0,0,0-.721.415l-8.24,13.991a.8.8,0,0,0,0,.847l8.222,13.991a.848.848,0,0,0,.721.415h16.028a.839.839,0,0,0,.739-1.262Z" transform="translate(-157.025 -120.6)" fill="#023b51"/>
</svg>
