<svg id="Layer_1" data-name="Layer 1" xmlns="http://www.w3.org/2000/svg" viewBox="0 0 383.09 49.14"><defs><style>.cls-1{fill:#023b51;}</style></defs><title>CKO_Logo_Midnight Blue</title><circle class="cls-1" cx="283.73" cy="34.91" r="3.84"/><path class="cls-1" d="M80.67,58.52a12.79,12.79,0,0,1-4.35-3A13.52,13.52,0,0,1,73.55,51a15.9,15.9,0,0,1-1-5.61,16.14,16.14,0,0,1,1-5.62,13.25,13.25,0,0,1,2.71-4.53,12.69,12.69,0,0,1,4.24-3,13.57,13.57,0,0,1,5.59-1.11,14.39,14.39,0,0,1,4.75.74,11.69,11.69,0,0,1,3.66,2A10.33,10.33,0,0,1,97,36.93a13.12,13.12,0,0,1,1.35,4h-7a5.47,5.47,0,0,0-1.66-3,4.7,4.7,0,0,0-3.3-1.18,5.61,5.61,0,0,0-4.9,2.29,10.58,10.58,0,0,0-1.64,6.25,11,11,0,0,0,1.56,6.19,5.41,5.41,0,0,0,4.87,2.35,5.69,5.69,0,0,0,3.64-1.13,5.3,5.3,0,0,0,1.8-3.46h6.9a10.7,10.7,0,0,1-3.56,7.3,11.46,11.46,0,0,1-3.74,2.22,14,14,0,0,1-4.88.82A14.34,14.34,0,0,1,80.67,58.52Z" transform="translate(-15.58 -20.83)"/><path class="cls-1" d="M109.77,35.32A10.5,10.5,0,0,1,113,32.1a9,9,0,0,1,4.58-1.05,9.32,9.32,0,0,1,3.83.76,8.62,8.62,0,0,1,2.92,2.11,9.87,9.87,0,0,1,1.9,3.19,11.53,11.53,0,0,1,.69,4.06V58.84h-7.17V42.23a5.22,5.22,0,0,0-1.22-3.59,4.39,4.39,0,0,0-3.48-1.37A5.06,5.06,0,0,0,111.17,39a6.46,6.46,0,0,0-1.56,4.51V58.84h-7.17V21.14h7.17V35.32Z" transform="translate(-15.58 -20.83)"/><path class="cls-1" d="M138.81,58.52a12.43,12.43,0,0,1-7.11-7.59,16.87,16.87,0,0,1-.93-5.65,15.9,15.9,0,0,1,1-5.61,13.44,13.44,0,0,1,2.74-4.51,13.7,13.7,0,0,1,15.37-2.92A11.59,11.59,0,0,1,154,35.58a15.28,15.28,0,0,1,2.55,5.14,23.63,23.63,0,0,1,.87,6.62H137.84a8.57,8.57,0,0,0,2.14,5,6.3,6.3,0,0,0,4.77,1.79,5.7,5.7,0,0,0,3.37-.9A5.11,5.11,0,0,0,150,50.77H157A10.51,10.51,0,0,1,153.16,57a12.17,12.17,0,0,1-3.67,1.92,14.43,14.43,0,0,1-4.69.72A15.23,15.23,0,0,1,138.81,58.52Zm1.09-20.38a8,8,0,0,0-2,4.24h12a6.4,6.4,0,0,0-1.72-4.19,5.35,5.35,0,0,0-4-1.6A5.65,5.65,0,0,0,139.9,38.14Z" transform="translate(-15.58 -20.83)"/><path class="cls-1" d="M168.17,58.52a12.79,12.79,0,0,1-4.35-3A13.52,13.52,0,0,1,161.05,51a15.9,15.9,0,0,1-1-5.61,16.37,16.37,0,0,1,1-5.62,13.43,13.43,0,0,1,2.72-4.53,12.69,12.69,0,0,1,4.24-3,13.54,13.54,0,0,1,5.59-1.11,14.39,14.39,0,0,1,4.75.74,11.81,11.81,0,0,1,3.66,2,10.33,10.33,0,0,1,2.53,3.11,13.12,13.12,0,0,1,1.35,4h-7a5.41,5.41,0,0,0-1.66-3,4.68,4.68,0,0,0-3.29-1.18A5.63,5.63,0,0,0,169,39.09a10.58,10.58,0,0,0-1.63,6.25,11,11,0,0,0,1.56,6.19,5.41,5.41,0,0,0,4.87,2.35,5.69,5.69,0,0,0,3.64-1.13,5.25,5.25,0,0,0,1.79-3.46h6.91a11.05,11.05,0,0,1-1.08,4,10.81,10.81,0,0,1-2.48,3.26,11.56,11.56,0,0,1-3.74,2.22,14,14,0,0,1-4.88.82A14.34,14.34,0,0,1,168.17,58.52Z" transform="translate(-15.58 -20.83)"/><path class="cls-1" d="M197.06,49.71v9.13h-7.12V21.14h7.12V42l9.59-10.23h8.6l-10,10.28,11.18,16.77h-8.7L200.17,46.5Z" transform="translate(-15.58 -20.83)"/><path class="cls-1" d="M224.34,58.52A13.38,13.38,0,0,1,217,51a15.82,15.82,0,0,1,0-11.23,13.4,13.4,0,0,1,7.36-7.56,15.42,15.42,0,0,1,11.49,0,13.42,13.42,0,0,1,7.35,7.56,15.82,15.82,0,0,1,0,11.23,13.4,13.4,0,0,1-7.35,7.57,15.42,15.42,0,0,1-11.49,0Zm10.83-6.8a10.59,10.59,0,0,0,1.77-6.38,10.71,10.71,0,0,0-1.77-6.41,6.51,6.51,0,0,0-10.18,0,10.78,10.78,0,0,0-1.76,6.41A10.66,10.66,0,0,0,225,51.72a6.56,6.56,0,0,0,10.18,0Z" transform="translate(-15.58 -20.83)"/><path class="cls-1" d="M265.22,55.67h-.15a10.65,10.65,0,0,1-3.14,2.88,9.19,9.19,0,0,1-4.62,1q-4.53,0-6.95-2.63a10.1,10.1,0,0,1-2.43-7.12v-18h7.12V48.61a5.43,5.43,0,0,0,1.08,3.63,4.21,4.21,0,0,0,3.4,1.27,4.94,4.94,0,0,0,4-1.71A6.58,6.58,0,0,0,265,47.39V31.79h7.17V58.84h-6.91Z" transform="translate(-15.58 -20.83)"/><path class="cls-1" d="M279.1,31.79V23.35h7v8.44h4.64v4.74h-4.64V50.87a2.55,2.55,0,0,0,.74,2.11,3,3,0,0,0,1.95.58h1.37a4.53,4.53,0,0,0,.74-.05v5.27a10.31,10.31,0,0,1-1.16.06c-.39,0-.86,0-1.42,0h-1.9a12.07,12.07,0,0,1-2.61-.29,6.8,6.8,0,0,1-2.35-1,5.51,5.51,0,0,1-1.71-2,6.83,6.83,0,0,1-.66-3.17V36.53h-3.74V31.79Z" transform="translate(-15.58 -20.83)"/><path class="cls-1" d="M313.49,58.44a11,11,0,0,1-3.88-3,13.45,13.45,0,0,1-2.4-4.53,19,19,0,0,1-.81-5.67,18.41,18.41,0,0,1,.84-5.67A13.66,13.66,0,0,1,309.66,35a11.18,11.18,0,0,1,3.91-3,12.32,12.32,0,0,1,5.27-1.08,11.48,11.48,0,0,1,7.41,2.32,10.19,10.19,0,0,1,3.56,6.54h-3.27A7.25,7.25,0,0,0,324,35.21a8.22,8.22,0,0,0-5.14-1.52,8.46,8.46,0,0,0-4.09.92,8.12,8.12,0,0,0-2.82,2.48,10.56,10.56,0,0,0-1.63,3.66,18.52,18.52,0,0,0-.53,4.48,17.3,17.3,0,0,0,.55,4.46A11.57,11.57,0,0,0,312,53.35a7.85,7.85,0,0,0,2.8,2.48,8.39,8.39,0,0,0,4,.9,7.74,7.74,0,0,0,5.56-2,8.52,8.52,0,0,0,2.5-5.3H330a11.24,11.24,0,0,1-3.37,7.36,11,11,0,0,1-7.8,2.71A12.3,12.3,0,0,1,313.49,58.44Z" transform="translate(-15.58 -20.83)"/><path class="cls-1" d="M340.2,58.44a11.38,11.38,0,0,1-4-3,13.46,13.46,0,0,1-2.5-4.53,18.91,18.91,0,0,1,0-11.34,13.46,13.46,0,0,1,2.5-4.53,11.63,11.63,0,0,1,4-3,12.55,12.55,0,0,1,5.3-1.08A12.32,12.32,0,0,1,350.77,32a11.65,11.65,0,0,1,4,3,13.25,13.25,0,0,1,2.48,4.53,19.56,19.56,0,0,1,0,11.34,13.25,13.25,0,0,1-2.48,4.53,11.4,11.4,0,0,1-4,3,12.32,12.32,0,0,1-5.27,1.08A12.55,12.55,0,0,1,340.2,58.44Zm9.31-2.56a8.06,8.06,0,0,0,2.9-2.48,11.24,11.24,0,0,0,1.74-3.69,17.59,17.59,0,0,0,0-9,11.24,11.24,0,0,0-1.74-3.69,8.26,8.26,0,0,0-2.9-2.48,8.63,8.63,0,0,0-10.94,2.48,10.9,10.9,0,0,0-1.77,3.69,17.59,17.59,0,0,0,0,9,10.9,10.9,0,0,0,1.77,3.69,8.41,8.41,0,0,0,2.9,2.48,9.43,9.43,0,0,0,8,0Z" transform="translate(-15.58 -20.83)"/><path class="cls-1" d="M365.93,31.58v4.11H366a11.27,11.27,0,0,1,3.32-3.38,8.92,8.92,0,0,1,5-1.31,8.16,8.16,0,0,1,4.48,1.24A6.78,6.78,0,0,1,381.59,36h.11a9.76,9.76,0,0,1,3.61-3.66A10.11,10.11,0,0,1,390.45,31a9.26,9.26,0,0,1,3.24.55,7.34,7.34,0,0,1,2.61,1.63A7.63,7.63,0,0,1,398,35.85a9.74,9.74,0,0,1,.63,3.64V58.84h-3.21V39.75a5.79,5.79,0,0,0-1.61-4.51,5.92,5.92,0,0,0-4.14-1.45,7.64,7.64,0,0,0-2.85.53,7.32,7.32,0,0,0-2.34,1.5,6.71,6.71,0,0,0-1.61,2.43,8.54,8.54,0,0,0-.58,3.24V58.84h-3.27V39.75a5.92,5.92,0,0,0-1.55-4.51,5.53,5.53,0,0,0-3.93-1.45,7.16,7.16,0,0,0-2.85.58A8.14,8.14,0,0,0,368.28,36a7.5,7.5,0,0,0-1.71,2.45,7.33,7.33,0,0,0-.64,3.06V58.84h-3.27V31.58Z" transform="translate(-15.58 -20.83)"/><path class="cls-1" d="M45.59,45.4,58.38,23.07a1.5,1.5,0,0,0,0-1.49,1.47,1.47,0,0,0-1.29-.75H30.64a1.49,1.49,0,0,0-1.29.74L15.79,44.64a1.48,1.48,0,0,0,0,1.52L29.35,69.23a1.49,1.49,0,0,0,1.29.74H57.08a1.49,1.49,0,0,0,1.29-.75,1.51,1.51,0,0,0,0-1.5Zm-1.73-3L33.23,23.83H54.49ZM30.63,25.32,42.13,45.4,30.63,65.48,18.82,45.4ZM33.23,67,43.86,48.42,54.49,67Z" transform="translate(-15.58 -20.83)"/></svg>